<svg width="500" height="500" viewBox="0 0 500 500" fill="none" xmlns="http://www.w3.org/2000/svg">
    <g>
        <path d="M515 509.1C457.2 485.4 399.3 461.8 331.7 442.5C264 423.3 186.6 408.6 155 360C123.4 311.4 137.7 229 120.5 163.4C103.3 97.8 54.6 48.9 5.90002 0H515V509.1Z" fill="#4D96FF" />
    </g>
    <g filter="url(#filter1_d_6_23)">
        <path d="M515 381.8C471.6 364.1 428.3 346.3 377.5 331.9C326.8 317.5 268.7 306.4 245 270C221.3 233.6 232 171.8 219.1 122.6C206.2 73.3 169.7 36.7 133.2 0H515V381.8Z" fill="#FFD93D" />
    </g>
    <g filter="url(#filter2_d_6_23)">
        <path d="M515 254.6C486.1 242.7 457.2 230.9 423.3 221.3C389.5 211.7 350.8 204.3 335 180C319.2 155.7 326.4 114.5 317.8 81.7C309.1 48.9 284.8 24.4 260.4 0H515V254.6Z" fill="#EC4447" />
    </g>
    <g filter="url(#filter3_d_6_23)">
        <path d="M515 127.3C500.5 121.4 486.1 115.4 469.2 110.6C452.3 105.8 432.9 102.1 425 90C417.1 77.9 420.7 57.3 416.4 40.9C412.1 24.4 399.9 12.2 387.7 0H515V127.3Z" fill="#6BCB77" />
    </g>
    <defs>
        <filter id="filter1_d_6_23" x="128.2" y="-5" width="397.8" height="397.8" filterUnits="userSpaceOnUse" color-interpolation-filters="sRGB">
            <feFlood flood-opacity="0" result="BackgroundImageFix" />
            <feColorMatrix in="SourceAlpha" type="matrix" values="0 0 0 0 0 0 0 0 0 0 0 0 0 0 0 0 0 0 127 0" result="hardAlpha" />
            <feOffset dx="3" dy="3" />
            <feGaussianBlur stdDeviation="4" />
            <feComposite in2="hardAlpha" operator="out" />
            <feColorMatrix type="matrix" values="0 0 0 0 0 0 0 0 0 0 0 0 0 0 0 0 0 0 0.25 0" />
            <feBlend mode="normal" in2="BackgroundImageFix" result="effect1_dropShadow_6_23" />
            <feBlend mode="normal" in="SourceGraphic" in2="effect1_dropShadow_6_23" result="shape" />
        </filter>
        <filter id="filter2_d_6_23" x="255.4" y="-5" width="270.6" height="270.6" filterUnits="userSpaceOnUse" color-interpolation-filters="sRGB">
            <feFlood flood-opacity="0" result="BackgroundImageFix" />
            <feColorMatrix in="SourceAlpha" type="matrix" values="0 0 0 0 0 0 0 0 0 0 0 0 0 0 0 0 0 0 127 0" result="hardAlpha" />
            <feOffset dx="3" dy="3" />
            <feGaussianBlur stdDeviation="4" />
            <feComposite in2="hardAlpha" operator="out" />
            <feColorMatrix type="matrix" values="0 0 0 0 0 0 0 0 0 0 0 0 0 0 0 0 0 0 0.25 0" />
            <feBlend mode="normal" in2="BackgroundImageFix" result="effect1_dropShadow_6_23" />
            <feBlend mode="normal" in="SourceGraphic" in2="effect1_dropShadow_6_23" result="shape" />
        </filter>
        <filter id="filter3_d_6_23" x="379.7" y="-8" width="143.3" height="143.3" filterUnits="userSpaceOnUse" color-interpolation-filters="sRGB">
            <feFlood flood-opacity="0" result="BackgroundImageFix" />
            <feColorMatrix in="SourceAlpha" type="matrix" values="0 0 0 0 0 0 0 0 0 0 0 0 0 0 0 0 0 0 127 0" result="hardAlpha" />
            <feOffset />
            <feGaussianBlur stdDeviation="4" />
            <feComposite in2="hardAlpha" operator="out" />
            <feColorMatrix type="matrix" values="0 0 0 0 0 0 0 0 0 0 0 0 0 0 0 0 0 0 0.5 0" />
            <feBlend mode="normal" in2="BackgroundImageFix" result="effect1_dropShadow_6_23" />
            <feBlend mode="normal" in="SourceGraphic" in2="effect1_dropShadow_6_23" result="shape" />
        </filter>
    </defs>
</svg>