<?xml-model href="blobsBL.dtd"?>
<svg width="500" height="500" viewBox="0 0 520 510" fill="none" xmlns="http://www.w3.org/2000/svg">
    <g>
        <path d="M0 5.90002C70.5 8.50002 140.9 11.2 194.8 44.6C248.7 78.1 286 142.3 318.9 196.1C351.8 249.9 380.2 293.3 411.1 344.7C442.1 396.1 475.6 455.6 509.1 515H0V5.90002Z" fill="#4D96FF" />
    </g>
    <g filter="url(#filter1_d_6_28)">
        <path d="M0 133.2C52.9 135.2 105.7 137.1 146.1 162.2C186.5 187.3 214.5 235.5 239.2 275.8C263.8 316.2 285.1 348.7 308.3 387.3C331.6 425.8 356.7 470.4 381.8 515H0V133.2Z" fill="#FFD93D" />
    </g>
    <g filter="url(#filter2_d_6_28)">
        <path d="M0 260.4C35.2 261.8 70.5 263.1 97.4 279.8C124.4 296.5 143 328.6 159.5 355.5C175.9 382.4 190.1 404.1 205.6 429.9C221 455.6 237.8 485.3 254.6 515H0V260.4Z" fill="#EC4447" />
    </g>
    <g filter="url(#filter3_d_6_28)">
        <path d="M0 387.7C17.6 388.4 35.2 389 48.7 397.4C62.2 405.8 71.5 421.8 79.7 435.3C87.9 448.7 95 459.6 102.8 472.4C110.5 485.3 118.9 500.1 127.3 515H0V387.7Z" fill="#6BCB77" />
    </g>
    <defs>
        <filter id="filter1_d_6_28" x="-5" y="128.2" width="397.8" height="397.8" filterUnits="userSpaceOnUse" color-interpolation-filters="sRGB">
            <feFlood flood-opacity="0" result="BackgroundImageFix" />
            <feColorMatrix in="SourceAlpha" type="matrix" values="0 0 0 0 0 0 0 0 0 0 0 0 0 0 0 0 0 0 127 0" result="hardAlpha" />
            <feOffset dx="3" dy="3" />
            <feGaussianBlur stdDeviation="4" />
            <feComposite in2="hardAlpha" operator="out" />
            <feColorMatrix type="matrix" values="0 0 0 0 0 0 0 0 0 0 0 0 0 0 0 0 0 0 0.25 0" />
            <feBlend mode="normal" in2="BackgroundImageFix" result="effect1_dropShadow_6_28" />
            <feBlend mode="normal" in="SourceGraphic" in2="effect1_dropShadow_6_28" result="shape" />
        </filter>
        <filter id="filter2_d_6_28" x="-5" y="255.4" width="270.6" height="270.6" filterUnits="userSpaceOnUse" color-interpolation-filters="sRGB">
            <feFlood flood-opacity="0" result="BackgroundImageFix" />
            <feColorMatrix in="SourceAlpha" type="matrix" values="0 0 0 0 0 0 0 0 0 0 0 0 0 0 0 0 0 0 127 0" result="hardAlpha" />
            <feOffset dx="3" dy="3" />
            <feGaussianBlur stdDeviation="4" />
            <feComposite in2="hardAlpha" operator="out" />
            <feColorMatrix type="matrix" values="0 0 0 0 0 0 0 0 0 0 0 0 0 0 0 0 0 0 0.25 0" />
            <feBlend mode="normal" in2="BackgroundImageFix" result="effect1_dropShadow_6_28" />
            <feBlend mode="normal" in="SourceGraphic" in2="effect1_dropShadow_6_28" result="shape" />
        </filter>
        <filter id="filter3_d_6_28" x="-5" y="382.7" width="143.3" height="143.3" filterUnits="userSpaceOnUse" color-interpolation-filters="sRGB">
            <feFlood flood-opacity="0" result="BackgroundImageFix" />
            <feColorMatrix in="SourceAlpha" type="matrix" values="0 0 0 0 0 0 0 0 0 0 0 0 0 0 0 0 0 0 127 0" result="hardAlpha" />
            <feOffset dx="3" dy="3" />
            <feGaussianBlur stdDeviation="4" />
            <feComposite in2="hardAlpha" operator="out" />
            <feColorMatrix type="matrix" values="0 0 0 0 0 0 0 0 0 0 0 0 0 0 0 0 0 0 0.25 0" />
            <feBlend mode="normal" in2="BackgroundImageFix" result="effect1_dropShadow_6_28" />
            <feBlend mode="normal" in="SourceGraphic" in2="effect1_dropShadow_6_28" result="shape" />
        </filter>
    </defs>
</svg>