<svg width="1024" height="1024" viewBox="0 0 1024 1024" fill="none" xmlns="http://www.w3.org/2000/svg">
<g filter="url(#filter0_d_8_22)">
<path d="M77.0104 597.977C36.2904 541.014 18.4981 470.324 42.1527 404.42C50.9314 379.962 59.2944 354.573 66.9794 327.656C86.2888 259.57 101.072 181.729 149.949 149.949C198.826 118.169 281.696 132.551 347.669 115.253C376.533 107.685 402.182 94.053 426.023 77.0104C482.986 36.2904 553.676 18.498 619.58 42.1527C644.038 50.9314 669.427 59.2944 696.344 66.9794C764.43 86.2888 842.271 101.073 874.051 149.949C905.831 198.826 891.449 281.696 908.747 347.669C916.315 376.533 929.947 402.182 946.99 426.023C987.71 482.986 1005.5 553.676 981.847 619.58C973.069 644.038 964.706 669.427 957.021 696.344C937.711 764.43 922.928 842.271 874.051 874.051C825.174 905.831 742.304 891.449 676.331 908.747C647.467 916.315 621.818 929.947 597.977 946.99C541.014 987.71 470.324 1005.5 404.42 981.847C379.962 973.069 354.573 964.706 327.656 957.021C259.57 937.711 181.729 922.927 149.949 874.051C118.169 825.174 132.551 742.304 115.253 676.331C107.685 647.467 94.053 621.818 77.0104 597.977Z" fill="#4D96FF"/>
</g>
<g filter="url(#filter1_d_8_22)">
<path d="M178.209 373.717C192.691 322.728 203.855 264.297 240.462 240.462C277.069 216.627 339.221 227.388 388.702 214.414C534.725 176.206 490.68 132.968 650.283 178.209C701.272 192.691 759.703 203.855 783.538 240.462C807.373 277.069 796.612 339.221 809.585 388.702C813.726 404.525 854.428 457.889 878.128 489.901C889.011 504.6 890.276 525.842 883.469 542.817C869.958 576.506 856.873 611.186 845.79 650.283C831.308 701.272 820.145 759.703 783.538 783.538C746.93 807.373 684.779 796.612 635.298 809.586C622.698 812.883 585.937 838.467 555.336 860.76C531.74 877.949 483.19 884.004 455.936 873.54C430.058 863.604 403.138 854.13 373.717 845.791C322.728 831.309 264.297 820.145 240.462 783.538C216.627 746.931 227.388 684.779 214.414 635.298C203.666 594.22 176.624 561.908 146.789 531.043C135.495 519.359 130.292 502.648 135.793 487.356C149.134 450.267 175.335 383.856 178.209 373.717Z" fill="#FFD93D"/>
</g>
<g filter="url(#filter2_d_8_22)">
<path d="M270.457 526.719C261.796 517.686 259.087 504.475 263.769 492.87C273.005 469.976 281.897 446.411 289.439 419.778C299.094 385.785 306.536 346.865 330.975 330.975C355.413 315.085 396.848 322.326 429.835 313.677C454.528 307.127 477.416 293.762 495.508 275.682C506.067 265.129 521.845 260.459 535.668 266.096C558.008 275.207 578.807 282.242 604.222 289.439C638.215 299.094 677.135 306.536 693.025 330.975C708.915 355.413 701.674 396.848 710.323 429.835C717.333 456.26 734.41 477.329 753.543 497.281C762.204 506.314 764.913 519.525 760.231 531.13C750.995 554.024 742.103 577.589 734.561 604.222C724.906 638.215 717.464 677.135 693.025 693.025C668.587 708.915 627.152 701.674 594.165 710.323C567.74 717.333 546.671 734.41 526.719 753.543C517.686 762.204 504.475 764.913 492.87 760.231C469.976 750.995 446.411 742.103 419.778 734.561C385.785 724.906 346.865 717.464 330.975 693.025C315.085 668.587 322.326 627.152 313.677 594.165C306.667 567.74 289.59 546.671 270.457 526.719Z" fill="#EC4447"/>
</g>
<g filter="url(#filter3_d_8_22)">
<path d="M390.51 518.605C386.593 514.56 385.364 508.613 387.475 503.394C392.234 491.628 396.891 479.595 400.77 465.939C405.597 448.943 409.318 429.432 421.487 421.487C433.656 413.542 454.374 417.163 470.867 412.838C484.494 409.287 495.205 400.377 505.395 390.51C509.44 386.593 515.387 385.364 520.606 387.475C532.372 392.234 544.405 396.891 558.061 400.77C575.057 405.597 594.568 409.318 602.513 421.487C610.458 433.656 606.837 454.374 611.162 470.867C614.713 484.495 623.623 495.205 633.49 505.395C637.407 509.44 638.636 515.387 636.525 520.606C631.766 532.372 627.109 544.405 623.23 558.061C618.403 575.057 614.682 594.568 602.513 602.513C590.344 610.458 569.626 606.837 553.133 611.162C539.505 614.713 528.795 623.623 518.605 633.49C514.56 637.407 508.613 638.636 503.394 636.525C491.628 631.766 479.595 627.109 465.939 623.23C448.943 618.403 429.432 614.682 421.487 602.513C413.542 590.344 417.163 569.626 412.838 553.133C409.287 539.505 400.377 528.795 390.51 518.605Z" fill="#6BCB77"/>
</g>
<defs>
<filter id="filter0_d_8_22" x="26.5499" y="26.5499" width="976.9" height="976.9" filterUnits="userSpaceOnUse" color-interpolation-filters="sRGB">
<feFlood flood-opacity="0" result="BackgroundImageFix"/>
<feColorMatrix in="SourceAlpha" type="matrix" values="0 0 0 0 0 0 0 0 0 0 0 0 0 0 0 0 0 0 127 0" result="hardAlpha"/>
<feOffset dx="3" dy="3"/>
<feGaussianBlur stdDeviation="4"/>
<feComposite in2="hardAlpha" operator="out"/>
<feColorMatrix type="matrix" values="0 0 0 0 0 0 0 0 0 0 0 0 0 0 0 0 0 0 0.25 0"/>
<feBlend mode="normal" in2="BackgroundImageFix" result="effect1_dropShadow_8_22"/>
<feBlend mode="normal" in="SourceGraphic" in2="effect1_dropShadow_8_22" result="shape"/>
</filter>
<filter id="filter1_d_8_22" x="128.587" y="153.853" width="770.078" height="735.845" filterUnits="userSpaceOnUse" color-interpolation-filters="sRGB">
<feFlood flood-opacity="0" result="BackgroundImageFix"/>
<feColorMatrix in="SourceAlpha" type="matrix" values="0 0 0 0 0 0 0 0 0 0 0 0 0 0 0 0 0 0 127 0" result="hardAlpha"/>
<feOffset dx="3" dy="3"/>
<feGaussianBlur stdDeviation="4"/>
<feComposite in2="hardAlpha" operator="out"/>
<feColorMatrix type="matrix" values="0 0 0 0 0 0 0 0 0 0 0 0 0 0 0 0 0 0 0.25 0"/>
<feBlend mode="normal" in2="BackgroundImageFix" result="effect1_dropShadow_8_22"/>
<feBlend mode="normal" in="SourceGraphic" in2="effect1_dropShadow_8_22" result="shape"/>
</filter>
<filter id="filter2_d_8_22" x="256.496" y="258.684" width="517.008" height="514.819" filterUnits="userSpaceOnUse" color-interpolation-filters="sRGB">
<feFlood flood-opacity="0" result="BackgroundImageFix"/>
<feColorMatrix in="SourceAlpha" type="matrix" values="0 0 0 0 0 0 0 0 0 0 0 0 0 0 0 0 0 0 127 0" result="hardAlpha"/>
<feOffset dx="3" dy="3"/>
<feGaussianBlur stdDeviation="4"/>
<feComposite in2="hardAlpha" operator="out"/>
<feColorMatrix type="matrix" values="0 0 0 0 0 0 0 0 0 0 0 0 0 0 0 0 0 0 0.25 0"/>
<feBlend mode="normal" in2="BackgroundImageFix" result="effect1_dropShadow_8_22"/>
<feBlend mode="normal" in="SourceGraphic" in2="effect1_dropShadow_8_22" result="shape"/>
</filter>
<filter id="filter3_d_8_22" x="378.453" y="378.453" width="267.094" height="267.094" filterUnits="userSpaceOnUse" color-interpolation-filters="sRGB">
<feFlood flood-opacity="0" result="BackgroundImageFix"/>
<feColorMatrix in="SourceAlpha" type="matrix" values="0 0 0 0 0 0 0 0 0 0 0 0 0 0 0 0 0 0 127 0" result="hardAlpha"/>
<feOffset/>
<feGaussianBlur stdDeviation="4"/>
<feComposite in2="hardAlpha" operator="out"/>
<feColorMatrix type="matrix" values="0 0 0 0 0 0 0 0 0 0 0 0 0 0 0 0 0 0 0.5 0"/>
<feBlend mode="normal" in2="BackgroundImageFix" result="effect1_dropShadow_8_22"/>
<feBlend mode="normal" in="SourceGraphic" in2="effect1_dropShadow_8_22" result="shape"/>
</filter>
</defs>
</svg>
