<svg width="50" height="50" viewBox="0 0 50 50" fill="none" xmlns="http://www.w3.org/2000/svg">
    <rect width="50" height="50" rx="25" fill="white" />
    <path d="M21 7.3094C23.4752 5.88034 26.5248 5.88034 29 7.3094L38.3205 12.6906C40.7957 14.1197 42.3205 16.7607 42.3205 19.6188V30.3812C42.3205 33.2393 40.7957 35.8803 38.3205 37.3094L29 42.6906C26.5248 44.1197 23.4752 44.1197 21 42.6906L11.6795 37.3094C9.2043 35.8803 7.6795 33.2393 7.6795 30.3812V19.6188C7.6795 16.7607 9.2043 14.1197 11.6795 12.6906L21 7.3094Z" />
    <path d="M11.6795 12.6906L10.4295 10.5255L11.6795 12.6906ZM11.6795 37.3094L12.9295 35.1443L11.6795 37.3094ZM29 42.6906L27.75 40.5255L29 42.6906ZM38.3205 12.6906L37.0705 14.8557L38.3205 12.6906ZM27.75 9.47446L37.0705 14.8557L39.5705 10.5255L30.25 5.14434L27.75 9.47446ZM39.8205 19.6188V30.3812H44.8205V19.6188H39.8205ZM37.0705 35.1443L27.75 40.5255L30.25 44.8557L39.5705 39.4745L37.0705 35.1443ZM22.25 40.5255L12.9295 35.1443L10.4295 39.4745L19.75 44.8557L22.25 40.5255ZM10.1795 30.3812V19.6188H5.1795V30.3812H10.1795ZM12.9295 14.8557L22.25 9.47446L19.75 5.14434L10.4295 10.5255L12.9295 14.8557ZM10.1795 19.6188C10.1795 17.6538 11.2278 15.8381 12.9295 14.8557L10.4295 10.5255C7.18079 12.4012 5.1795 15.8675 5.1795 19.6188H10.1795ZM12.9295 35.1443C11.2278 34.1619 10.1795 32.3462 10.1795 30.3812H5.1795C5.1795 34.1325 7.18079 37.5988 10.4295 39.4745L12.9295 35.1443ZM27.75 40.5255C26.0483 41.508 23.9517 41.508 22.25 40.5255L19.75 44.8557C22.9987 46.7313 27.0013 46.7313 30.25 44.8557L27.75 40.5255ZM39.8205 30.3812C39.8205 32.3462 38.7722 34.1619 37.0705 35.1443L39.5705 39.4745C42.8192 37.5988 44.8205 34.1325 44.8205 30.3812H39.8205ZM37.0705 14.8557C38.7722 15.8381 39.8205 17.6538 39.8205 19.6188H44.8205C44.8205 15.8675 42.8192 12.4012 39.5705 10.5255L37.0705 14.8557ZM30.25 5.14434C27.0013 3.26869 22.9987 3.26869 19.75 5.14434L22.25 9.47446C23.9517 8.49198 26.0483 8.49198 27.75 9.47446L30.25 5.14434Z" fill="#FF4747" />
</svg>