<svg width="256" height="256" viewBox="0 0 256 256" fill="none" xmlns="http://www.w3.org/2000/svg">
<circle cx="128" cy="128" r="128" fill="white"/>
<path fill-rule="evenodd" clip-rule="evenodd" d="M127.37 255.998C98.6329 255.86 72.1342 246.252 50.8346 230.134L39.5 180L47.5 123L87.5 86.5L171.5 84L174.5 112L147 113C149.833 120.5 154.2 136.5 149 140.5C142.5 145.5 127 146 113.5 137.5C100 129 96 131.5 89 137C84.9605 140.174 87.0817 144.18 89.6946 149.115C91.6095 152.732 93.7885 156.848 94 161.5C94.4 170.3 82.1667 175.833 76 177.5C58.2905 177.5 65.6229 200.38 68.8672 210.504C69.1036 211.242 69.3183 211.912 69.5 212.5C76.8601 236.333 103.383 249.11 127.37 255.998Z" fill="#4082E3"/>
<path fill-rule="evenodd" clip-rule="evenodd" d="M96.7032 252.146C71.8547 242.208 35.3238 213.502 47 159.5C59.8 100.3 138.333 90.1667 176 92.5H251.013C235.624 39.0773 186.375 0 128 0C57.3076 0 0 57.3076 0 128C0 187.896 41.1395 238.183 96.7032 252.146Z" fill="#6BCB77"/>
<path fill-rule="evenodd" clip-rule="evenodd" d="M75.7624 244.89C60.6426 235.65 38.8786 215.754 33.5 185.5C25.5 140.5 41 107.5 44.5 103C48 98.5 55.5 91 59.5 88C63.5 85 82 74.5 88.5 80C93.7 84.4 105.667 81.8333 111 80C114.5 77.8333 122 72.3 124 67.5C126 62.7 135.5 62.1667 140 62.5L240.497 66.8885C218.806 27.0419 176.561 0 128 0C57.3076 0 0 57.3076 0 128C0 180.086 31.1102 224.905 75.7624 244.89Z" fill="#EC4447"/>
<path fill-rule="evenodd" clip-rule="evenodd" d="M153 77.5L153.5 95C153.333 99.8333 155 110.8 163 116C171 121.2 182 117.167 186.5 114.5C189.833 110.5 197.459 105.607 205 116.5C214 129.5 229 117.5 232 111.5C234.4 106.7 236 93.5 236.5 87.5L195.5 22L115.5 27C124 31.8333 142.5 43.4 148.5 51C154.5 58.6 154 71.8333 153 77.5Z" fill="#FFD93D"/>
<path fill-rule="evenodd" clip-rule="evenodd" d="M255.063 143.564C239.178 144.726 235.345 130.386 235.5 122.5C233.833 112.667 228 93.5 218 95.5C205.5 98 192 85.5 188 79.5C186.595 77.3929 185.746 74.2991 184.779 70.7818C182.995 64.2835 180.813 56.3393 174 50.5C172.828 49.4958 171.738 48.504 170.667 47.5303C162.141 39.777 154.869 33.1653 118 30.5C76.5 27.5 18 61.5 9 136C5.18333 167.594 17.6833 194.588 34.1962 215.092C12.9762 192.247 0 161.639 0 128C0 57.3076 57.3076 0 128 0C198.692 0 256 57.3076 256 128C256 133.269 255.682 138.463 255.063 143.564Z" fill="#4D96FF"/>
<path d="M69.5 110.5C70.3 104.5 64.8333 103 62 103C57.5 103.5 56.5 107 58.5 111.5C60.5 116 68.5 118 69.5 110.5Z" fill="#3B4261"/>
<path d="M182 81C180.601 80.6502 179.333 81.8333 178.5 83.5C178.333 84 177 85.5 175 86.5C173.211 87.3944 172 92 176.5 92.5C181 93 182 93 184 88.5C186 84 184 81.5 182 81Z" fill="#3B4261"/>
<path d="M54 100C54.4 98 52.1667 97.8333 51 98C49.5 99 50 101 51 102C52 103 53.5 102.5 54 100Z" fill="#3B4261"/>
<path d="M94.5816 184.652H116.355C121.725 161.564 126 147.5 132 124.5C137 147.5 142.191 161.643 147.583 184.652H169.356L190.22 100.64C190.715 98.648 190.361 96.468 188.79 95.1465C187.85 94.3553 186.695 93.6368 185.5 93.5C181.421 93.0331 176.168 98.3875 176 98C173.044 96.0592 170.5 89.5 169 88.5C167.5 87.5 167 88 166.5 89C166 90 167 96 167.5 100.5C168 105 169 111 168.5 114.5C168 118 163.5 140.5 159 164C153.806 143.222 149.368 124.915 144.695 105.258C143.391 99.7719 138.631 95.7964 133 95.5C127.732 95.5 123.172 99.1399 121.893 104.25C116.854 124.369 110.87 143.46 106.5 164C103.295 142.203 96.7229 123.958 91.8494 102.5C91.6989 97.5 72 78.5 67.5 77.5C63 76.5 53 78.5 55 88.5C57 98.5 56 97 65.5 100.5C75 104 71.5 111 72 115.5C72.4 119.1 78.1667 128 81 132L94.5816 184.652Z" fill="#3B4261"/>
</svg>
